<?xml version="1.0" encoding="UTF-8" standalone="no"?>
<!-- Created with Inkscape (http://www.inkscape.org/) -->

<svg
   width="31.667543mm"
   height="4.3279095mm"
   viewBox="0 0 31.667543 4.3279095"
   version="1.1"
   id="svg1"
   xml:space="preserve"
   xmlns="http://www.w3.org/2000/svg"
   xmlns:svg="http://www.w3.org/2000/svg"><defs
     id="defs1" /><g
     id="layer1"
     transform="translate(-168.01368,-105.78121)"><g
       id="g887"><path
         style="fill:#5e5e5e;stroke:none"
         d="m 169.14631,109.72593 v 0.0593 l 1.95852,-0.1187 c -0.69794,-0.36571 -1.2416,-0.10144 -1.95852,0.0594"
         id="path865" /><path
         style="fill:#5e5e5e;stroke:none"
         d="m 196.68439,109.42919 v 0.0593 l 1.60243,0.0594 c -0.57596,-0.26646 -0.99952,-0.35547 -1.60243,-0.1187"
         id="path864" /><path
         style="fill:#5e5e5e;stroke:none"
         d="m 172.29182,109.6067 v 0.0593 l 1.72113,-0.0723 2.67072,0.0723 v -0.11869 l -2.01788,-0.0594 c 0.51144,-0.25029 1.2672,-0.35543 1.81614,-0.15848 0.30072,0.10788 0.52209,0.33535 0.84472,0.39955 0.67131,0.13358 1.46371,0.0114 2.14644,-0.009 2.43502,-0.0743 4.8625,-0.12084 7.29996,-0.11259 1.08867,0.004 2.17365,0.075 3.26407,0.0574 0.23466,-0.004 0.47258,-0.0123 0.69159,-0.10578 0.25562,-0.10916 0.45819,-0.30903 0.73151,-0.38179 0.5345,-0.14227 1.17968,-0.0321 1.72256,0.0144 v 0.1187 l -2.01788,0.17805 v 0.0594 l 2.61137,-0.11477 1.48373,0.0554 c -0.88651,-0.51472 -1.73322,-0.53415 -2.73006,-0.53415 -0.42316,1e-5 -0.88185,-0.0453 -1.29788,0.0451 -0.31854,0.0692 -0.55189,0.29784 -0.85304,0.40491 -0.34773,0.12364 -0.75037,0.0841 -1.1133,0.0842 -2.35319,5.2e-4 -4.70981,-0.0415 -7.06257,0.003 -1.40139,0.0265 -2.81254,0.17443 -4.21368,0.15617 -0.60083,-0.008 -0.97951,-0.45749 -1.54523,-0.54668 -0.51915,-0.0818 -1.07802,-0.02 -1.6004,0.003 -0.41141,0.0181 -0.84232,-8.1e-4 -1.24633,0.0869 -0.44385,0.0964 -0.86844,0.29141 -1.30569,0.41639"
         id="path863" /><path
         style="fill:#5e5e5e;stroke:none"
         d="m 170.63004,109.1319 v 0.1187 l 0.83089,0.2374 c -0.0906,-0.5356 -0.38017,-0.64406 -0.83089,-0.3561"
         id="path862" /><path
         style="fill:#5e5e5e;stroke:none"
         d="m 197.0998,109.07263 c -0.0719,-0.0788 -0.13818,-0.16264 -0.23003,-0.21997 -0.41526,-0.25924 -0.6497,0.43816 -0.074,0.31824 0.10462,-0.0218 0.20396,-0.0622 0.30406,-0.0983"
         id="path861" /><path
         style="fill:#5e5e5e;stroke:none"
         d="m 168.84963,108.24179 c -0.17824,0.2974 -0.43646,0.67271 -0.39516,1.03851 0.0174,0.15428 0.18214,0.34334 0.31606,0.16338 0.0879,-0.11811 0.0745,-0.28911 0.072,-0.42753 -0.003,-0.16027 -0.002,-0.3175 0.007,-0.47761 l 0.59349,0.77154 -0.2374,0.17805 0.89024,-0.2374 v -0.0594 l -1.24633,-0.94959"
         id="path860" /><path
         style="fill:#5e5e5e;stroke:none"
         d="m 198.52425,109.31006 c -0.16685,-0.41599 0.0578,-0.66558 0.35609,-0.94959 0.0108,0.23464 -0.0299,0.50209 0.0292,0.73037 0.0261,0.10088 0.1217,0.24866 0.24268,0.16486 0.33247,-0.2303 -0.15534,-1.00968 -0.27184,-1.25133 -0.29619,0.2016 -1.49806,1.00252 -0.65759,1.24801 0.0985,0.0288 0.20045,0.0416 0.3015,0.0577"
         id="path859" /><path
         style="fill:#5e5e5e;stroke:none"
         d="m 169.50243,107.82633 0.71219,-0.2374 c -0.29584,-0.0246 -0.48414,0.0504 -0.71219,0.2374"
         id="path858" /><path
         style="fill:#5e5e5e;stroke:none"
         d="m 197.51531,107.35158 v 0.0593 l 0.71219,0.17805 -0.71219,-0.2374"
         id="path857" /><path
         style="fill:#5e5e5e;stroke:none"
         d="m 170.74877,108.77597 c 0.34875,-0.47863 0.42155,-0.96321 0.35609,-1.54309 -0.59142,0.42864 -0.53504,0.89167 -0.35609,1.54309"
         id="path856" /><path
         style="fill:#5e5e5e;stroke:none"
         d="m 169.68043,107.52963 0.41544,-0.1187 -0.0593,-0.2374 -0.35609,0.3561"
         id="path855" /><path
         style="fill:#5e5e5e;stroke:none"
         d="m 196.62502,107.05484 c -0.0785,0.60599 0.0181,1.06884 0.41544,1.54308 l 0.2374,-1.18699 -0.65284,-0.35609"
         id="path854" /><path
         style="fill:#5e5e5e;stroke:none"
         d="m 170.86742,107.05484 -0.4748,0.41544 0.4748,-0.41544"
         id="path853" /><path
         style="fill:#5e5e5e;stroke:none"
         d="m 170.21457,107.05484 c 0.0776,0.27296 0.27041,0.17673 0.41545,0 h -0.41545"
         id="path852" /><path
         style="fill:#5e5e5e;stroke:none"
         d="m 197.75266,106.99544 -0.1187,0.17804 0.47479,0.17805 -0.35609,-0.35609"
         id="path851" /><path
         style="fill:#5e5e5e;stroke:none"
         d="m 197.15916,106.87674 0.41545,0.0593 -0.41545,-0.0593"
         id="path850" /><path
         style="fill:#5e5e5e;stroke:none"
         d="m 196.80307,106.87674 0.59349,0.35609 -0.59349,-0.35609"
         id="path849" /><path
         style="fill:#5e5e5e;stroke:none"
         d="m 168.79024,107.70765 h 0.0593 c 0.13412,-0.28804 0.2315,-0.64862 0.47491,-0.86631 0.47153,-0.42171 1.37218,-0.2552 1.95841,-0.32068 -0.61775,-0.27739 -1.36338,-0.18874 -2.01728,-0.094 -0.26496,0.0384 -0.63732,0.0915 -0.75006,0.37772 -0.12257,0.31121 0.11844,0.65277 0.27467,0.90325"
         id="path848" /><path
         style="fill:#5e5e5e;stroke:none"
         d="m 196.50637,106.40196 c 0.59267,0 1.48937,-0.15157 1.95465,0.30209 0.22364,0.21806 0.31282,0.5411 0.41932,0.82555 0.18229,-0.24814 0.41276,-0.58393 0.28009,-0.907 -0.11102,-0.27038 -0.43751,-0.34984 -0.69654,-0.39348 -0.60363,-0.1017 -1.43181,-0.19101 -1.95752,0.17284"
         id="path847" /><path
         style="fill:#5e5e5e;stroke:none"
         d="m 178.5235,106.2832 v 0.0593 c 1.28773,4.2e-4 2.5706,0.18009 3.8577,0.17775 0.32075,-5.8e-4 0.62011,-0.0475 0.93679,-0.083 0.0537,-0.006 0.25243,-0.0329 0.25243,0.0665 0,0.21603 -0.64774,0.19203 -0.7738,0.1934 -0.81025,0.009 -1.62403,-0.0833 -2.43329,-0.11844 -0.93025,-0.0404 -1.85657,-0.15314 -2.78942,-0.1362 -1.52482,0.0277 -3.0454,0.22655 -4.5699,0.25409 -0.69528,0.0126 -1.39136,0.009 -2.08676,0.0165 -0.38262,0.004 -0.82391,-0.0224 -1.16981,0.16798 -0.35192,0.19373 -0.76662,0.75943 -0.62282,1.1811 0.0897,0.263 0.33857,0.46624 0.5572,0.62172 0.16679,0.11861 0.69096,0.46291 0.80494,0.10627 0.0828,-0.25906 -0.0698,-0.85687 -0.366,-0.93089 -0.22154,-0.0554 -0.47585,0.0682 -0.67771,0.14494 l 0.83089,0.83089 c -0.23602,-0.13932 -0.47835,-0.28056 -0.66876,-0.48126 -1.00249,-1.05661 1.62725,-2.24667 1.69083,-0.76244 0.0155,0.36111 -0.10006,0.72047 -0.19118,1.06566 0.3414,0.23828 0.49385,0.47431 0.53415,0.89024 l 1.48373,-0.3561 v -0.0593 c -0.4728,-6e-4 -1.01131,0.0468 -1.36118,-0.33599 -0.37823,-0.41381 -0.42417,-1.6239 0.19958,-1.85657 0.51108,-0.19064 1.2715,-0.11244 1.81444,-0.12005 1.26565,-0.0177 2.53258,-0.002 3.79836,-0.002 4.13439,0 8.26811,-0.0545 12.40381,-0.0595 1.38533,-0.002 2.76844,-0.0592 4.15465,-0.0592 0.49478,0 1.28792,-0.14602 1.73163,0.109 0.51254,0.29456 0.45404,1.4305 0.0681,1.78844 -0.32332,0.29985 -0.78965,0.32482 -1.20621,0.35783 v 0.0593 l 1.42438,0.41545 c -0.0125,-0.45739 0.24608,-0.76578 0.30206,-1.19715 0.0573,-0.44118 -0.2238,-1.0759 0.23422,-1.38762 0.54857,-0.37333 1.67762,0.0896 1.64723,0.80483 -0.0195,0.45796 -0.52633,0.75193 -0.87782,0.94905 l 0.77154,-0.89024 -0.77154,-0.17805 c -0.10563,0.2825 -0.36562,0.84808 -0.13528,1.1247 0.11305,0.13576 0.30002,0.0758 0.43346,0.009 0.30667,-0.15392 0.69472,-0.45374 0.82911,-0.77885 0.0999,-0.24164 -0.005,-0.49332 -0.1209,-0.70882 -0.44058,-0.81712 -1.52088,-0.59058 -2.31208,-0.64245 -0.86765,-0.0569 -1.7425,0.0114 -2.61137,-0.0162 -1.18561,-0.0377 -2.37366,-0.15717 -3.56095,-0.14517 -0.90918,0.009 -1.82469,0.10905 -2.73007,0.18679 -0.80365,0.069 -1.62687,0.13888 -2.43332,0.13964 -0.14177,1.4e-4 -0.74154,0.0381 -0.74154,-0.20711 0,-0.10936 0.22305,-0.0432 0.27333,-0.0332 0.29547,0.0587 0.58315,0.0633 0.88365,0.0628 1.24535,-0.002 2.56336,-0.0772 3.79836,-0.23731 -0.89289,-0.15846 -1.82623,-0.13366 -2.73007,-0.18617 -2.58904,-0.1504 -5.19242,-0.0736 -7.77476,0.18617"
         id="path846" /><path
         style="fill:#5e5e5e;stroke:none"
         d="m 175.55603,106.10516 v 0.0593 l 3.91706,-0.0593 c -1.25346,-0.24103 -2.65671,-0.16165 -3.91706,0"
         id="path845" /><path
         style="fill:#5e5e5e;stroke:none"
         d="m 187.90069,105.98646 v 0.0593 c 1.42755,0.10176 2.78952,0.1091 4.2138,-0.0593 h -4.2138"
         id="path844" /><path
         style="fill:#5e5e5e;stroke:none"
         d="m 190.86813,106.1642 v 0.0593 c 0.8817,0.11239 1.78356,0.0897 2.67071,0.12884 0.71494,0.0316 1.48587,0.13843 2.19593,0.0108 0.3513,-0.0631 0.65962,-0.25732 1.00894,-0.32773 0.48048,-0.0969 0.99975,-0.0443 1.48372,-0.001 0.32172,0.0287 0.70197,0.0491 0.9542,0.27787 0.43458,0.39416 -8e-4,0.94339 -0.0548,1.39514 -0.0651,0.54431 0.69892,1.45751 0.0182,1.82819 -0.10128,0.0551 -0.21486,0.0854 -0.32694,0.10922 -0.94814,0.20162 -1.89585,-0.0265 -2.84588,-0.0265 -0.76831,0 -1.54618,0.11451 -2.31463,0.15329 -0.82823,0.0418 -1.66354,0.013 -2.49267,0.013 -2.69173,0 -5.3804,-0.0783 -8.07151,-0.0585 -2.11721,0.0156 -4.23101,0.11854 -6.35043,0.11785 -1.10894,-3.6e-4 -2.21465,0.0696 -3.3235,0.058 -0.59367,-0.006 -1.18737,-0.12136 -1.78048,-0.0913 -0.69614,0.0353 -1.37822,0.0938 -2.07723,0.0925 -0.31801,-5.6e-4 -0.68664,0.0322 -0.98442,-0.10075 -0.76149,-0.33983 0.0693,-1.30701 -0.011,-1.85764 -0.0547,-0.37473 -0.36778,-0.72068 -0.28795,-1.11386 0.048,-0.23635 0.24373,-0.38431 0.46004,-0.46159 0.64226,-0.22948 1.64311,-0.23661 2.30709,-0.0996 0.36704,0.0757 0.68887,0.26512 1.06829,0.29646 0.47385,0.0391 0.95005,-0.0282 1.42351,-0.0423 1.12759,-0.0336 2.25965,-0.0851 3.38379,-0.18156 -1.61919,-0.28076 -3.33926,-0.16192 -4.97759,-0.25476 -0.75917,-0.043 -1.50402,-0.0407 -2.26303,0.006 -0.38817,0.0237 -0.80911,0.0151 -1.17714,0.1575 -0.2364,0.0915 -0.4253,0.26187 -0.47413,0.51868 -0.081,0.42572 0.17872,0.82133 0.22232,1.2346 0.067,0.63552 -0.64024,1.71111 0.30987,1.97719 0.73825,0.20676 1.60661,0.10004 2.36541,0.10004 1.60321,0 3.20583,-0.0559 4.80732,-0.0592 5.34212,-0.011 10.68128,-0.0595 16.0243,-0.0595 1.80182,0 3.59985,-0.0556 5.40078,-0.0596 0.47619,-10e-4 0.94957,-0.0287 1.42434,-0.064 0.2827,-0.021 0.60585,-0.0432 0.83731,-0.22649 0.58998,-0.46732 -0.0125,-1.37432 0.0248,-1.96455 0.0246,-0.38809 0.2283,-0.78275 0.11734,-1.17361 -0.0716,-0.25212 -0.27294,-0.41067 -0.51311,-0.49365 -0.88993,-0.30748 -2.03621,-0.18213 -2.959,-0.12936 -1.73617,0.0993 -3.48325,0.31051 -5.22274,0.31289"
         id="path843" /></g></g></svg>
